<svg width="771" height="845" viewBox="0 0 771 845" fill="none" xmlns="http://www.w3.org/2000/svg">
<path d="M277.426 465.559C283.068 463.279 287.817 463.54 291.673 466.342C295.53 469.144 297.246 473.58 296.822 479.651L295.41 499.84C294.376 514.62 279.365 531.968 266.374 543.885L191.747 609.989L192.087 610.236C198.314 608.162 205.814 605.661 208.643 604.603C243.966 590.331 261.459 592.854 278.314 600.662C295.187 608.207 303.814 627.662 300.397 651.606C291.814 701.662 282.933 725.81 261.814 750.162C235.108 780.956 213.314 803.662 152.072 825.579C129.749 834.598 104.314 840.162 81.5335 843.558C73.3138 844.783 70.8119 845.197 66.974 842.131C63.3814 838.966 61.6836 834.266 61.8812 828.031L62.0638 813.011C62.243 807.04 65.6122 794.707 69.8138 789.162C74.3605 783.162 80.0217 779.918 85.3998 778.001C106.876 770.863 130.976 768.186 152.072 759.662C203.585 738.85 222.191 720.013 224.314 689.662C225.2 676.994 223.956 664.867 214.814 662.662C205.69 660.193 194.357 662.309 171.789 671.427C139.164 684.608 115.814 690.663 68.1429 726.314C62.5617 731.133 57.1458 733.578 51.8968 733.647C46.9117 733.353 42.1245 732.614 39.8138 728.162L37.3138 722.662C35.2669 717.847 34.0866 713.117 35.9828 706.452C38.1243 699.688 41.7685 693.6 46.9144 688.187L175.657 560.901L175.684 560.506L102.592 581.117C96.3142 583.162 87.5888 585.437 84.3138 582.162C81.0389 578.887 82.7722 573.096 83.1966 567.026L84.3138 558.662C85.2963 552.53 88.33 545.834 92.8138 539.662C97.2977 533.491 103.241 529.034 108.883 526.755L277.426 465.559ZM703.985 342.765C710.391 340.806 715.661 341.561 719.792 345.027C723.924 348.494 725.581 353.552 724.765 360.201L722.316 383.15C721.499 389.799 718.422 396.305 713.083 402.667C707.745 409.03 701.872 413.191 695.465 415.15L527.919 472.373C525.413 473.14 523.721 474.909 522.844 477.681C516.714 494.859 511.513 508.832 507.243 519.598L507.136 520.465L507.971 520.209C531.8 507.359 553.464 497.954 572.962 491.992C611.959 480.07 637.732 480.455 656.28 493.149C674.828 505.842 682.007 529.246 677.819 563.36C673.524 598.342 658.7 631.06 627.347 661.514C596.03 691.679 544.814 725.521 507.671 733.988C471.814 742.163 451.603 744.487 423.03 747.936C416.765 748.738 412.038 745.844 408.848 741.254C405.937 736.579 405.586 730.704 407.795 723.629L414.53 701.536C416.739 694.461 420.72 688.236 426.474 682.859C432.228 677.483 438.097 674.436 444.083 673.719C471.542 670.611 495.578 665.905 516.191 659.604C540.981 652.024 560.926 641.336 576.025 627.537C591.402 613.654 597.048 598.906 598.965 583.295C601.805 560.167 590.905 553.286 560.265 562.653C531.853 571.34 504.993 584.952 479.684 605.489C464.484 617.927 451.314 619.86 437.058 619.86L421.631 619.423C415.787 618.984 411.984 616.111 410.223 610.807C408.776 605.128 409.678 598.87 412.93 592.032C430.833 555.395 442.373 524.821 451.548 500.313C452.425 497.541 451.748 496.496 449.52 497.177L414.485 507.333C408.078 509.292 402.809 508.537 398.677 505.07C394.546 501.604 392.888 496.546 393.704 489.897L395.154 469.948C395.97 463.299 399.047 457.793 404.386 451.431C409.725 445.068 413.314 442.663 420.004 439.949L477.499 421.066C479.727 420.384 481.262 418.802 482.103 416.319C484.282 407.306 485.934 400.401 487.059 395.605C490.313 385.162 492.814 374.662 499.314 371.162C505.279 367.95 507.314 368.162 517.314 365.162L533.985 360.749C540.599 359.284 548.693 356.37 552.268 360.007C554.814 362.597 556.314 364.162 555.314 373.162C555.036 375.662 554.601 378.691 553.814 382.662C553.109 386.217 552.814 388.163 552.146 391.07C551.478 393.978 552.138 394.412 554.645 393.646L703.985 342.765ZM360.801 87.967C374.559 82.4083 385.588 82.8704 393.886 89.3537C402.184 95.837 406.301 109.426 404.236 124.12C402.37 137.392 396.633 150.664 387.024 163.936C377.636 177.117 366.817 187.077 354.568 193.815C354.124 193.994 353.631 194.529 353.087 195.419C352.765 196.22 352.692 196.702 352.887 196.841C363.814 204.662 372.814 210.662 383.314 218.162C387.223 220.955 388.175 226.717 388.123 229.397C388.023 234.579 383.087 241.667 379.314 247.662L367.317 264.698C362.314 270.662 358.813 275.163 354.569 279.63C350.324 284.097 344.814 283.163 341.522 280.878C337.814 278.305 332.542 272.185 324.865 267.239L324.2 267.508L324.099 268.219C327.648 284.669 326.057 302.612 323.326 322.046C319.428 349.775 311.324 377.158 287.012 404.194C262.956 430.902 232.621 451.653 196.006 466.446C160.945 480.612 134.4 481.836 116.372 470.118C98.5998 458.074 95.1946 433.395 100.158 398.081C102.756 379.595 110.42 357.833 123.148 332.795C135.876 307.757 154.856 277.417 174.085 253.776C174.34 253.449 174.485 253.167 174.518 252.93C174.551 252.693 174.457 252.62 174.235 252.709L139.626 266.116C134.522 268.178 130.367 267.957 127.16 265.452C123.954 262.947 122.734 258.969 123.5 253.518L126.799 241.164C127.565 235.713 130.118 230.211 134.456 224.658C138.795 219.105 143.517 215.298 148.62 213.236L224.16 181.462C229.264 179.4 233.419 179.622 236.625 182.127C239.831 184.632 241.052 188.61 240.285 194.061L238.488 213.969C236.756 226.293 227.325 239.286 216.196 252.948C201.238 271.51 190.515 293.293 180.029 314.296C169.542 335.299 163.166 353.859 160.901 369.975C158.169 389.409 160.731 402.458 168.585 409.12C176.44 415.783 188.245 415.931 204 409.566C222.64 402.035 233.686 391.038 245.137 376.575C256.81 362.023 264.013 345.029 266.744 325.595C269.476 306.161 271.609 291.396 271.144 281.301C270.712 270.969 271.034 256.513 266.11 237.937C264.879 233.293 265.346 227.738 267.51 221.276C269.708 214.576 273.181 208.478 277.93 202.983L294.374 184.267C296.86 181.474 299.04 179.364 300.915 177.936C303.012 176.418 303.972 174.801 303.795 173.084C303.884 169.471 304.078 166.598 304.378 164.465C306.443 149.771 312.09 135.237 323.32 120.864C334.549 106.492 347.043 93.5257 360.801 87.967ZM511.39 77.8361C516.664 76.1949 520.414 77.2513 522.637 81.0051C525.14 84.401 525.382 89.1999 523.365 95.4015C509.07 138.394 501.496 177.152 496.644 211.677C494.929 223.877 494.138 235.216 494.271 245.691C494.683 255.807 495.836 263.911 497.731 270.001C499.662 275.831 502.777 279.363 505.074 282.598C507.649 285.475 510.274 286.373 512.948 285.293C516.836 283.722 522.822 277.018 530.904 265.184C539.022 253.089 548.09 236.694 558.105 215.998C561.301 209.565 565.616 204.149 571.048 199.75C576.723 195.254 582.089 192.964 587.144 192.88L605.737 193.713C610.792 193.629 614.133 195.952 615.761 200.681C617.425 205.15 616.763 210.683 613.773 217.277C596.258 255.449 576.867 285.402 555.598 311.134C534.573 336.768 518.067 351.218 500.081 358.485C477.721 367.519 458.111 362.469 443.251 339.336C428.392 316.203 425.099 284.312 431.374 239.663C436.993 199.687 445.296 158.185 460.284 115.158C462.617 108.339 466.47 102.13 471.842 96.5324C477.457 90.8362 483.248 87.15 489.214 85.4738L511.39 77.8361ZM689.719 3.08025C695.808 -1.09358 701.343 0.0373242 706.326 0.472828C711.308 0.908321 714.492 3.54026 715.876 8.36736C731.79 63.1493 738.149 134.594 728.953 214.7C728.357 220.572 725.684 226.55 720.932 232.632C716.18 238.714 711.008 242.885 705.418 245.144L674.711 255.338C668.814 257.162 664.551 254.484 661.003 252C657.492 249.257 656.034 244.948 656.63 239.076C664.257 170.132 659.814 121.663 648.866 54.5392C647.724 49.6139 648.154 39.836 651.314 33.6623C655.734 26.9344 656.814 26.662 665.037 19.6633L689.719 3.08025ZM371.916 117.753C368.333 114.954 362.546 114.764 356.555 117.185C350.564 119.605 346.143 122.919 341.294 129.125C336.445 135.332 332.571 146.635 331.671 153.034C330.772 159.433 333.114 164.033 336.698 166.832C340.281 169.632 345.068 169.821 351.059 167.401C357.05 164.98 362.472 160.667 367.321 154.46C372.17 148.254 375.043 141.95 375.943 135.551C376.842 129.152 376.61 121.42 371.916 117.753Z" fill="#88BBD8"/>
<path d="M245.314 230.163C380.814 94.6627 621.314 3.16244 719.814 54.6625C737.148 65.3292 761.203 83.6628 768.814 134.663C771.939 155.595 770.217 178.979 764.943 201.163H747.302C750.862 187.572 751.372 177.39 752.814 161.163C754.814 138.663 744.4 104.362 710.314 94.6625C689.814 88.8292 641.314 84.9226 609.814 94.6625C584.481 102.496 524.287 128.736 486.814 152.663C338.814 247.163 268.814 332.573 187.814 424.663C103.814 520.163 84.9756 584.686 68.3134 636.163C61.5162 657.162 48.8137 707.263 70.8134 755.663C78.9801 767.163 87.3144 781.163 129.814 784.663C148.052 786.164 159.407 785.373 186.158 779.594L197.468 793.551C185.633 797.671 172.599 801.901 162.314 804.663C108.314 819.163 59.4144 808.663 37.8144 788.663C5.31442 758.57 -4.51821 712.663 1.81437 662.663C18.3465 532.131 114.5 355.752 245.314 230.163Z" fill="#FCB603" fill-opacity="0.64"/>
<path d="M229.332 781.139C228.741 782.022 214.313 787.67 197.457 793.538L186.145 779.578C194.485 777.776 204.322 775.492 216.332 772.638L229.332 781.139Z" fill="url(#paint0_linear_3_85)" fill-opacity="0.64"/>
<path d="M764.956 201.162C761.034 217.651 755.151 233.478 747.832 247.139L734.832 241.639C739.332 229.639 740.332 223.638 744.832 209.639C745.798 206.634 746.615 203.832 747.315 201.162H764.956Z" fill="url(#paint1_linear_3_85)" fill-opacity="0.64"/>
<defs>
<linearGradient id="paint0_linear_3_85" x1="214.314" y1="779.162" x2="194.814" y2="785.662" gradientUnits="userSpaceOnUse">
<stop stop-color="#FCB603" stop-opacity="0"/>
<stop offset="1" stop-color="#FCB603"/>
</linearGradient>
<linearGradient id="paint1_linear_3_85" x1="745.314" y1="238.662" x2="751.314" y2="205.662" gradientUnits="userSpaceOnUse">
<stop stop-color="#FCB603" stop-opacity="0"/>
<stop offset="1" stop-color="#FCB603"/>
</linearGradient>
</defs>
</svg>
